<?xml version="1.0" encoding="UTF-8" standalone="no"?>
<!DOCTYPE svg PUBLIC "-//W3C//DTD SVG 1.1//EN"
 "http://www.w3.org/Graphics/SVG/1.1/DTD/svg11.dtd">
<!-- Generated by graphviz version 2.40.1 (20161225.0304)
 -->
<!-- Title: PRISMA Pages: 1 -->
<svg width="718pt" height="705pt"
 viewBox="0.00 0.00 717.74 705.00" xmlns="http://www.w3.org/2000/svg" xmlns:xlink="http://www.w3.org/1999/xlink">
<g id="graph0" class="graph" transform="scale(1 1) rotate(0) translate(4 701)">
<title>PRISMA</title>
<polygon fill="#ffffff" stroke="transparent" points="-4,4 -4,-701 713.7368,-701 713.7368,4 -4,4"/>
<!-- L1 -->
<g id="node1" class="node">
<title>L1</title>
<path fill="transparent" stroke="transparent" stroke-width="1.2" d="M89.2125,-652.6027C89.2125,-652.6027 9.7526,-652.6027 9.7526,-652.6027 4.885,-652.6027 .0174,-647.7351 .0174,-642.8676 .0174,-642.8676 .0174,-633.1324 .0174,-633.1324 .0174,-628.2649 4.885,-623.3973 9.7526,-623.3973 9.7526,-623.3973 89.2125,-623.3973 89.2125,-623.3973 94.0801,-623.3973 98.9477,-628.2649 98.9477,-633.1324 98.9477,-633.1324 98.9477,-642.8676 98.9477,-642.8676 98.9477,-647.7351 94.0801,-652.6027 89.2125,-652.6027"/>
<text text-anchor="start" x="13" y="-635.1" font-family="Helvetica,sans-Serif" font-weight="bold" font-size="13.00" fill="#2d3748">Identification</text>
</g>
<!-- L2 -->
<g id="node2" class="node">
<title>L2</title>
<path fill="transparent" stroke="transparent" stroke-width="1.2" d="M82.0549,-503.5C82.0549,-503.5 16.9102,-503.5 16.9102,-503.5 10.9102,-503.5 4.9102,-497.5 4.9102,-491.5 4.9102,-491.5 4.9102,-475.5 4.9102,-475.5 4.9102,-469.5 10.9102,-463.5 16.9102,-463.5 16.9102,-463.5 82.0549,-463.5 82.0549,-463.5 88.0549,-463.5 94.0549,-469.5 94.0549,-475.5 94.0549,-475.5 94.0549,-491.5 94.0549,-491.5 94.0549,-497.5 88.0549,-503.5 82.0549,-503.5"/>
<text text-anchor="start" x="17.6969" y="-485.8" font-family="Helvetica,sans-Serif" font-weight="bold" font-size="13.00" fill="#2d3748">1st Degree</text>
<text text-anchor="start" x="23.8453" y="-472.8" font-family="Helvetica,sans-Serif" font-weight="bold" font-size="13.00" fill="#2d3748">Retrieval</text>
</g>
<!-- L1&#45;&gt;L2 -->
<!-- L3 -->
<g id="node3" class="node">
<title>L3</title>
<path fill="transparent" stroke="transparent" stroke-width="1.2" d="M81.7644,-350.1027C81.7644,-350.1027 17.2007,-350.1027 17.2007,-350.1027 12.3331,-350.1027 7.4656,-345.2351 7.4656,-340.3676 7.4656,-340.3676 7.4656,-330.6324 7.4656,-330.6324 7.4656,-325.7649 12.3331,-320.8973 17.2007,-320.8973 17.2007,-320.8973 81.7644,-320.8973 81.7644,-320.8973 86.632,-320.8973 91.4995,-325.7649 91.4995,-330.6324 91.4995,-330.6324 91.4995,-340.3676 91.4995,-340.3676 91.4995,-345.2351 86.632,-350.1027 81.7644,-350.1027"/>
<text text-anchor="start" x="20.2248" y="-332.6" font-family="Helvetica,sans-Serif" font-weight="bold" font-size="13.00" fill="#2d3748">Screening</text>
</g>
<!-- L2&#45;&gt;L3 -->
<!-- L4 -->
<g id="node4" class="node">
<title>L4</title>
<path fill="transparent" stroke="transparent" stroke-width="1.2" d="M84.3946,-207.5C84.3946,-207.5 14.5705,-207.5 14.5705,-207.5 8.5705,-207.5 2.5705,-201.5 2.5705,-195.5 2.5705,-195.5 2.5705,-179.5 2.5705,-179.5 2.5705,-173.5 8.5705,-167.5 14.5705,-167.5 14.5705,-167.5 84.3946,-167.5 84.3946,-167.5 90.3946,-167.5 96.3946,-173.5 96.3946,-179.5 96.3946,-179.5 96.3946,-195.5 96.3946,-195.5 96.3946,-201.5 90.3946,-207.5 84.3946,-207.5"/>
<text text-anchor="start" x="15.5266" y="-189.8" font-family="Helvetica,sans-Serif" font-weight="bold" font-size="13.00" fill="#2d3748">2nd Degree</text>
<text text-anchor="start" x="23.8453" y="-176.8" font-family="Helvetica,sans-Serif" font-weight="bold" font-size="13.00" fill="#2d3748">Retrieval</text>
</g>
<!-- L3&#45;&gt;L4 -->
<!-- L5 -->
<g id="node5" class="node">
<title>L5</title>
<path fill="transparent" stroke="transparent" stroke-width="1.2" d="M77.3785,-60.6027C77.3785,-60.6027 21.5866,-60.6027 21.5866,-60.6027 16.7191,-60.6027 11.8515,-55.7351 11.8515,-50.8676 11.8515,-50.8676 11.8515,-41.1324 11.8515,-41.1324 11.8515,-36.2649 16.7191,-31.3973 21.5866,-31.3973 21.5866,-31.3973 77.3785,-31.3973 77.3785,-31.3973 82.246,-31.3973 87.1136,-36.2649 87.1136,-41.1324 87.1136,-41.1324 87.1136,-50.8676 87.1136,-50.8676 87.1136,-55.7351 82.246,-60.6027 77.3785,-60.6027"/>
<text text-anchor="start" x="24.9171" y="-43.1" font-family="Helvetica,sans-Serif" font-weight="bold" font-size="13.00" fill="#2d3748">Included</text>
</g>
<!-- L4&#45;&gt;L5 -->
<!-- S1 -->
<g id="node6" class="node">
<title>S1</title>
<path fill="#f0f4f8" stroke="#4a5568" stroke-width="1.2" d="M396.4826,-697C396.4826,-697 168.4826,-697 168.4826,-697 162.4826,-697 156.4826,-691 156.4826,-685 156.4826,-685 156.4826,-591 156.4826,-591 156.4826,-585 162.4826,-579 168.4826,-579 168.4826,-579 396.4826,-579 396.4826,-579 402.4826,-579 408.4826,-585 408.4826,-591 408.4826,-591 408.4826,-685 408.4826,-685 408.4826,-691 402.4826,-697 396.4826,-697"/>
<text text-anchor="start" x="196.8756" y="-679.3" font-family="Helvetica,sans-Serif" font-weight="bold" font-size="13.00" fill="#2d3748">Source Publications Identified</text>
<text text-anchor="start" x="218.2047" y="-653.3" font-family="Helvetica,sans-Serif" font-size="13.00" fill="#2d3748">MIMIC (I&#45;IV): 4 papers</text>
<text text-anchor="start" x="222.5188" y="-640.3" font-family="Helvetica,sans-Serif" font-size="13.00" fill="#2d3748">UK Biobank: 1 paper</text>
<text text-anchor="start" x="216.0129" y="-627.3" font-family="Helvetica,sans-Serif" font-size="13.00" fill="#2d3748">OpenSAFELY: 1 paper</text>
<text text-anchor="start" x="232.6386" y="-614.3" font-family="Helvetica,sans-Serif" font-size="13.00" fill="#2d3748">All of Us: 1 paper</text>
<text text-anchor="start" x="217.8264" y="-588.3" font-family="Helvetica,sans-Serif" font-weight="bold" font-size="13.00" fill="#2d3748">Total: 7 source papers</text>
</g>
<!-- S2 -->
<g id="node7" class="node">
<title>S2</title>
<path fill="#f0f4f8" stroke="#4a5568" stroke-width="1.2" d="M397.3307,-536C397.3307,-536 167.6344,-536 167.6344,-536 161.6344,-536 155.6344,-530 155.6344,-524 155.6344,-524 155.6344,-443 155.6344,-443 155.6344,-437 161.6344,-431 167.6344,-431 167.6344,-431 397.3307,-431 397.3307,-431 403.3307,-431 409.3307,-437 409.3307,-443 409.3307,-443 409.3307,-524 409.3307,-524 409.3307,-530 403.3307,-536 397.3307,-536"/>
<text text-anchor="start" x="175.9495" y="-518.3" font-family="Helvetica,sans-Serif" font-weight="bold" font-size="13.00" fill="#2d3748">First&#45;Degree Citing Papers Retrieved</text>
<text text-anchor="start" x="227.2235" y="-505.3" font-family="Helvetica,sans-Serif" font-size="13.00" fill="#2d3748">(via OpenAlex API)</text>
<text text-anchor="start" x="176.7627" y="-479.3" font-family="Helvetica,sans-Serif" font-size="13.00" fill="#2d3748">MIMIC: 9,581 &#160;| &#160;UK Biobank: 11,803</text>
<text text-anchor="start" x="168.8086" y="-466.3" font-family="Helvetica,sans-Serif" font-size="13.00" fill="#2d3748">OpenSAFELY: 6,256 &#160;| &#160;All of Us: 2,066</text>
<text text-anchor="start" x="221.0764" y="-440.3" font-family="Helvetica,sans-Serif" font-weight="bold" font-size="13.00" fill="#2d3748">Total: 29,706 records</text>
</g>
<!-- S1&#45;&gt;S2 -->
<g id="edge1" class="edge">
<title>S1&#45;&gt;S2</title>
<path fill="none" stroke="#718096" stroke-width="1.2" d="M282.4826,-578.7081C282.4826,-578.7081 282.4826,-543.319 282.4826,-543.319"/>
<polygon fill="#718096" stroke="#718096" stroke-width="1.2" points="284.9326,-543.3189 282.4826,-536.319 280.0326,-543.319 284.9326,-543.3189"/>
</g>
<!-- S3 -->
<g id="node8" class="node">
<title>S3</title>
<path fill="#f0f4f8" stroke="#4a5568" stroke-width="1.2" d="M397.3307,-381.5C397.3307,-381.5 167.6344,-381.5 167.6344,-381.5 161.6344,-381.5 155.6344,-375.5 155.6344,-369.5 155.6344,-369.5 155.6344,-301.5 155.6344,-301.5 155.6344,-295.5 161.6344,-289.5 167.6344,-289.5 167.6344,-289.5 397.3307,-289.5 397.3307,-289.5 403.3307,-289.5 409.3307,-295.5 409.3307,-301.5 409.3307,-301.5 409.3307,-369.5 409.3307,-369.5 409.3307,-375.5 403.3307,-381.5 397.3307,-381.5"/>
<text text-anchor="start" x="201.5862" y="-363.8" font-family="Helvetica,sans-Serif" font-weight="bold" font-size="13.00" fill="#2d3748">Unique First&#45;Degree Papers</text>
<text text-anchor="start" x="176.7627" y="-337.8" font-family="Helvetica,sans-Serif" font-size="13.00" fill="#2d3748">MIMIC: 9,581 &#160;| &#160;UK Biobank: 11,803</text>
<text text-anchor="start" x="168.8086" y="-324.8" font-family="Helvetica,sans-Serif" font-size="13.00" fill="#2d3748">OpenSAFELY: 6,256 &#160;| &#160;All of Us: 2,066</text>
<text text-anchor="start" x="201.5615" y="-298.8" font-family="Helvetica,sans-Serif" font-weight="bold" font-size="13.00" fill="#2d3748">Total: 29,291 unique papers</text>
</g>
<!-- S2&#45;&gt;S3 -->
<g id="edge2" class="edge">
<title>S2&#45;&gt;S3</title>
<path fill="none" stroke="#718096" stroke-width="1.2" d="M282.4826,-430.904C282.4826,-430.904 282.4826,-388.539 282.4826,-388.539"/>
<polygon fill="#718096" stroke="#718096" stroke-width="1.2" points="284.9326,-388.539 282.4826,-381.539 280.0326,-388.539 284.9326,-388.539"/>
</g>
<!-- E1 -->
<g id="node11" class="node">
<title>E1</title>
<path fill="#fff5f5" stroke="#c53030" stroke-width="1.2" d="M657.4825,-516.5C657.4825,-516.5 479.4825,-516.5 479.4825,-516.5 473.4825,-516.5 467.4825,-510.5 467.4825,-504.5 467.4825,-504.5 467.4825,-462.5 467.4825,-462.5 467.4825,-456.5 473.4825,-450.5 479.4825,-450.5 479.4825,-450.5 657.4825,-450.5 657.4825,-450.5 663.4825,-450.5 669.4825,-456.5 669.4825,-462.5 669.4825,-462.5 669.4825,-504.5 669.4825,-504.5 669.4825,-510.5 663.4825,-516.5 657.4825,-516.5"/>
<text text-anchor="start" x="508.5298" y="-498.8" font-family="Helvetica,sans-Serif" font-weight="bold" font-size="13.00" fill="#2d3748">Duplicates Removed</text>
<text text-anchor="start" x="505.9948" y="-472.8" font-family="Helvetica,sans-Serif" font-size="13.00" fill="#2d3748">415 cross&#45;component</text>
<text text-anchor="start" x="502.0402" y="-459.8" font-family="Helvetica,sans-Serif" font-size="13.00" fill="#2d3748">duplicates (MIMIC I&#45;IV)</text>
</g>
<!-- S2&#45;&gt;E1 -->
<g id="edge5" class="edge">
<title>S2&#45;&gt;E1</title>
<path fill="none" stroke="#718096" stroke-width="1.2" d="M409.1753,-483C409.1753,-483 460.2078,-483 460.2078,-483"/>
<polygon fill="#718096" stroke="#718096" stroke-width="1.2" points="460.2079,-485.4501 467.2078,-483 460.2078,-480.5501 460.2079,-485.4501"/>
</g>
<!-- S4 -->
<g id="node9" class="node">
<title>S4</title>
<path fill="#f0f4f8" stroke="#4a5568" stroke-width="1.2" d="M397.3307,-240C397.3307,-240 167.6344,-240 167.6344,-240 161.6344,-240 155.6344,-234 155.6344,-228 155.6344,-228 155.6344,-147 155.6344,-147 155.6344,-141 161.6344,-135 167.6344,-135 167.6344,-135 397.3307,-135 397.3307,-135 403.3307,-135 409.3307,-141 409.3307,-147 409.3307,-147 409.3307,-228 409.3307,-228 409.3307,-234 403.3307,-240 397.3307,-240"/>
<text text-anchor="start" x="183.5337" y="-222.3" font-family="Helvetica,sans-Serif" font-weight="bold" font-size="13.00" fill="#2d3748">First&#45;Degree Papers with Citations</text>
<text text-anchor="start" x="194.7189" y="-209.3" font-family="Helvetica,sans-Serif" font-size="13.00" fill="#2d3748">(queried for 2nd&#45;degree citers)</text>
<text text-anchor="start" x="180.376" y="-183.3" font-family="Helvetica,sans-Serif" font-size="13.00" fill="#2d3748">MIMIC: 7,100 &#160;| &#160;UK Biobank: 9,075</text>
<text text-anchor="start" x="168.8086" y="-170.3" font-family="Helvetica,sans-Serif" font-size="13.00" fill="#2d3748">OpenSAFELY: 5,052 &#160;| &#160;All of Us: 1,478</text>
<text text-anchor="start" x="222.8769" y="-144.3" font-family="Helvetica,sans-Serif" font-weight="bold" font-size="13.00" fill="#2d3748">Total: 22,705 papers</text>
</g>
<!-- S3&#45;&gt;S4 -->
<g id="edge3" class="edge">
<title>S3&#45;&gt;S4</title>
<path fill="none" stroke="#718096" stroke-width="1.2" d="M282.4826,-289.4832C282.4826,-289.4832 282.4826,-247.2133 282.4826,-247.2133"/>
<polygon fill="#718096" stroke="#718096" stroke-width="1.2" points="284.9326,-247.2133 282.4826,-240.2133 280.0326,-247.2133 284.9326,-247.2133"/>
</g>
<!-- E2 -->
<g id="node12" class="node">
<title>E2</title>
<path fill="#fff5f5" stroke="#c53030" stroke-width="1.2" d="M697.4915,-388C697.4915,-388 479.4736,-388 479.4736,-388 473.4736,-388 467.4736,-382 467.4736,-376 467.4736,-376 467.4736,-295 467.4736,-295 467.4736,-289 473.4736,-283 479.4736,-283 479.4736,-283 697.4915,-283 697.4915,-283 703.4915,-283 709.4915,-289 709.4915,-295 709.4915,-295 709.4915,-376 709.4915,-376 709.4915,-382 703.4915,-388 697.4915,-388"/>
<text text-anchor="start" x="513.713" y="-370.3" font-family="Helvetica,sans-Serif" font-weight="bold" font-size="13.00" fill="#2d3748">Excluded: Uncited Papers</text>
<text text-anchor="start" x="514.0849" y="-357.3" font-family="Helvetica,sans-Serif" font-size="13.00" fill="#2d3748">(no downstream citations)</text>
<text text-anchor="start" x="486.376" y="-331.3" font-family="Helvetica,sans-Serif" font-size="13.00" fill="#2d3748">MIMIC: 2,481 &#160;| &#160;UK Biobank: 2,728</text>
<text text-anchor="start" x="480.2283" y="-318.3" font-family="Helvetica,sans-Serif" font-size="13.00" fill="#2d3748">OpenSAFELY: 1,204 &#160;| &#160;All of Us: 588</text>
<text text-anchor="start" x="532.4902" y="-292.3" font-family="Helvetica,sans-Serif" font-weight="bold" font-size="13.00" fill="#2d3748">Total: 7,001 papers</text>
</g>
<!-- S3&#45;&gt;E2 -->
<g id="edge6" class="edge">
<title>S3&#45;&gt;E2</title>
<path fill="none" stroke="#718096" stroke-width="1.2" d="M409.5957,-335C409.5957,-335 460.1656,-335 460.1656,-335"/>
<polygon fill="#718096" stroke="#718096" stroke-width="1.2" points="460.1656,-337.4501 467.1656,-335 460.1655,-332.5501 460.1656,-337.4501"/>
</g>
<!-- S5 -->
<g id="node10" class="node">
<title>S5</title>
<path fill="#f0fff4" stroke="#276749" stroke-width="1.2" d="M408.0106,-92C408.0106,-92 156.9545,-92 156.9545,-92 150.9545,-92 144.9545,-86 144.9545,-80 144.9545,-80 144.9545,-12 144.9545,-12 144.9545,-6 150.9545,0 156.9545,0 156.9545,0 408.0106,0 408.0106,0 414.0106,0 420.0106,-6 420.0106,-12 420.0106,-12 420.0106,-80 420.0106,-80 420.0106,-86 414.0106,-92 408.0106,-92"/>
<text text-anchor="start" x="166.5447" y="-74.3" font-family="Helvetica,sans-Serif" font-weight="bold" font-size="13.00" fill="#2d3748">Second&#45;Degree Citing Papers Retrieved</text>
<text text-anchor="start" x="165.9226" y="-48.3" font-family="Helvetica,sans-Serif" font-size="13.00" fill="#2d3748">MIMIC: 133,861 &#160;| &#160;UK Biobank: 215,809</text>
<text text-anchor="start" x="157.9685" y="-35.3" font-family="Helvetica,sans-Serif" font-size="13.00" fill="#2d3748">OpenSAFELY: 124,311 &#160;| &#160;All of Us: 29,890</text>
<text text-anchor="start" x="197.9481" y="-9.3" font-family="Helvetica,sans-Serif" font-weight="bold" font-size="13.00" fill="#2d3748">Total: 466,932 unique papers</text>
</g>
<!-- S4&#45;&gt;S5 -->
<g id="edge4" class="edge">
<title>S4&#45;&gt;S5</title>
<path fill="none" stroke="#718096" stroke-width="1.2" d="M282.4826,-134.8106C282.4826,-134.8106 282.4826,-99.2161 282.4826,-99.2161"/>
<polygon fill="#718096" stroke="#718096" stroke-width="1.2" points="284.9326,-99.2161 282.4826,-92.2161 280.0326,-99.2162 284.9326,-99.2161"/>
</g>
</g>
</svg>

